<?xml version="1.0" encoding="UTF-8"?>
<!DOCTYPE svg PUBLIC "-//W3C//DTD SVG 1.1//EN" "http://www.w3.org/Graphics/SVG/1.1/DTD/svg11.dtd">
<!-- Creator: CorelDRAW X7 -->
<svg xmlns="http://www.w3.org/2000/svg" xml:space="preserve" width="200mm" height="190mm" version="1.1" style="shape-rendering:geometricPrecision; text-rendering:geometricPrecision; image-rendering:optimizeQuality; fill-rule:evenodd; clip-rule:evenodd"
viewBox="0 0 20000 19000"
 xmlns:xlink="http://www.w3.org/1999/xlink">
 <defs>
  <style type="text/css">
   <![CDATA[
    .fil0 {fill:#010101}
    .fil1 {fill:#2B80F7}
    .fil4 {fill:#E8E7E7}
    .fil3 {fill:#F6E81C}
    .fil2 {fill:#FE0D00}
    .fil5 {fill:#FEFEFE}
   ]]>
  </style>
 </defs>
 <g id="__x0023_Layer_x0020_1">
  <metadata id="CorelCorpID_0Corel-Layer"/>
  <g id="_1799179883792">
   <path class="fil0" d="M18647 7200c9,41 9,74 1,99 -7,45 -12,90 -15,135 -4,66 -7,111 -10,136 -8,59 -33,285 -77,676 -73,647 -186,1346 -338,2097 -125,613 -284,1243 -479,1890 -293,972 -659,1914 -1098,2828 -306,636 -654,1263 -1044,1882 -7,10 -37,56 -92,139 -41,62 -70,109 -88,141 -18,33 -33,55 -45,65 -28,23 -51,37 -71,41 -638,142 -1246,262 -1824,360 -121,20 -247,39 -380,57 -400,54 -607,82 -622,83 -53,6 -88,11 -104,15 -33,8 -68,12 -105,12 -18,-1 -48,3 -89,10 -21,3 -50,6 -88,9 -99,8 -167,14 -205,18 -298,32 -598,56 -899,74 -14,9 -37,12 -67,9 -95,-11 -190,-9 -285,6 -3,0 -5,1 -6,3 -2,2 -3,5 -3,8 -15,5 -28,7 -40,4 -131,-10 -262,-10 -393,0l-1161 -5c-14,5 -29,4 -43,-1 -47,-11 -105,-17 -173,-20 -53,-1 -89,-2 -106,-1 -40,2 -75,1 -105,-5 -61,-10 -126,-15 -194,-14 -40,1 -77,-1 -111,-7 -37,-7 -75,-11 -114,-12 -50,-2 -97,-5 -142,-10 -90,-10 -137,-15 -141,-15 -28,-2 -59,-4 -93,-7 -112,-11 -219,-23 -321,-36 -756,-95 -1475,-222 -2159,-383 -160,-38 -361,-90 -604,-157 -31,-9 -52,-22 -63,-41 -162,-260 -313,-514 -453,-763 -40,-72 -102,-183 -186,-335 -452,-813 -856,-1654 -1210,-2521 -501,-1224 -874,-2473 -1120,-3748 -97,-501 -171,-999 -223,-1495 -3,-31 -6,-53 -8,-67 -5,-34 -8,-57 -8,-69 0,-31 -3,-63 -7,-96 -7,-43 -10,-75 -12,-96 -3,-52 -7,-106 -12,-161 0,-1 0,-2 -1,-2 -2,-3 -5,-4 -8,-3 -1,1 -2,1 -2,2 -1,1 0,4 1,10l-3 -61c4,-79 1,-157 -10,-234 -1,-13 -3,-14 -4,-3 -1,3 -1,6 0,9 -4,-6 -5,-13 -3,-22 6,-96 -4,-189 -29,-280 -11,-57 -8,-98 6,-122l1066 -1157 547 -548c179,-166 357,-331 535,-496 96,-89 191,-175 285,-258 577,-510 1163,-976 1757,-1399 881,-627 1817,-1183 2808,-1665 437,-213 773,-364 1008,-453 272,-103 423,-161 451,-174 36,-17 71,-34 106,-52 121,-63 208,24 321,71 830,346 1662,750 2497,1215 840,467 1630,975 2369,1522 1322,979 2488,2093 3497,3343 16,20 30,29 41,25zm-8608 10610l0 0c354,-10 616,-19 788,-27 121,-5 249,-12 383,-21 40,-3 238,-18 595,-45 130,-10 257,-23 382,-38 413,-51 744,-95 996,-133 585,-89 1206,-206 1861,-352 42,-10 85,-19 129,-29 35,-8 66,-24 90,-50 7,-7 25,-34 55,-82 277,-435 509,-822 696,-1161 563,-1019 1034,-2115 1414,-3286 207,-637 384,-1290 533,-1960 25,-113 50,-238 76,-376 57,-301 95,-502 116,-603 25,-128 47,-254 64,-379 21,-144 52,-364 94,-661 58,-401 106,-825 147,-1272 3,-39 -11,-77 -42,-115 -1075,-1307 -2295,-2449 -3660,-3427 -222,-159 -501,-343 -709,-484 -111,-76 -218,-146 -321,-209 -567,-354 -1119,-669 -1656,-947 -595,-308 -1257,-619 -1986,-933 -51,-22 -103,-23 -155,-2 -387,155 -668,270 -843,344 -323,138 -744,341 -1264,609 -73,38 -186,100 -336,186 -161,92 -471,262 -691,397 -729,450 -1419,937 -2070,1463 -389,314 -666,546 -832,696 -250,225 -401,362 -453,409 -104,93 -198,181 -280,263 -262,259 -411,409 -448,448 -166,175 -265,279 -299,314 -119,122 -207,215 -264,278 -146,164 -291,321 -435,472 -33,35 -68,76 -105,121 -56,70 -47,121 -41,224 22,378 38,623 49,732 16,160 56,481 123,963 16,123 36,250 59,381 56,322 97,544 124,666 96,438 201,863 313,1275 30,109 66,232 108,369 246,798 526,1555 840,2273 407,927 910,1899 1510,2913 20,34 55,132 108,146 837,224 1691,391 2561,501 85,10 297,34 637,71 191,20 435,38 732,51 261,13 518,22 769,29 152,4 332,4 538,-2z"/>
   <path class="fil1" d="M10039 17810c-206,6 -386,6 -538,2 -251,-7 -508,-16 -769,-29 -297,-13 -541,-31 -732,-51 -340,-37 -552,-61 -637,-71 -870,-110 -1724,-277 -2561,-501 -53,-14 -88,-112 -108,-146 -600,-1014 -1103,-1986 -1510,-2913 -314,-718 -594,-1475 -840,-2273 -42,-137 -78,-260 -108,-369 -112,-412 -217,-837 -313,-1275 -27,-122 -68,-344 -124,-666 -23,-131 -43,-258 -59,-381 -67,-482 -107,-803 -123,-963 -11,-109 -27,-354 -49,-732 -6,-103 -15,-154 41,-224 37,-45 72,-86 105,-121 144,-151 289,-308 435,-472 57,-63 145,-156 264,-278 34,-35 133,-139 299,-314 37,-39 186,-189 448,-448 82,-82 176,-170 280,-263 52,-47 203,-184 453,-409 166,-150 443,-382 832,-696 651,-526 1341,-1013 2070,-1463 220,-135 530,-305 691,-397 150,-86 263,-148 336,-186 520,-268 941,-471 1264,-609 175,-74 456,-189 843,-344 52,-21 104,-20 155,2 729,314 1391,625 1986,933 537,278 1089,593 1656,947 103,63 210,133 321,209 208,141 487,325 709,484 1365,978 2585,2120 3660,3427 31,38 45,76 42,115 -41,447 -89,871 -147,1272 -42,297 -73,517 -94,661 -17,125 -39,251 -64,379 -21,101 -59,302 -116,603 -26,138 -51,263 -76,376 -149,670 -326,1323 -533,1960 -380,1171 -851,2267 -1414,3286 -187,339 -419,726 -696,1161 -30,48 -48,75 -55,82 -24,26 -55,42 -90,50 -44,10 -87,19 -129,29 -655,146 -1276,263 -1861,352 -252,38 -583,82 -996,133 -125,15 -252,28 -382,38 -357,27 -555,42 -595,45 -134,9 -262,16 -383,21 -172,8 -434,17 -788,27zm-247 -14039l0 0c-7,-29 -11,-66 -14,-111 -1,-30 -12,-48 -32,-54 -38,-11 -97,-13 -176,-5 -7,1 -12,4 -16,10 -5,9 -9,25 -11,47 -10,114 43,233 152,276 140,57 393,25 416,-164 22,-174 -36,-304 -173,-390 -40,-25 -71,-44 -95,-57 -66,-37 -86,-93 -69,-163 3,-13 15,-20 36,-23l6 0c21,3 31,14 31,36l0 77c0,13 11,24 25,24l181 0c15,0 25,-7 28,-23 14,-80 1,-145 -38,-195 -83,-105 -271,-107 -385,-62 -58,23 -95,63 -111,119 -30,108 -18,271 79,343 51,38 100,70 145,98 44,27 72,52 85,75 19,35 24,76 14,120 -7,36 -33,54 -66,37 -6,-3 -11,-9 -12,-15l0 0zm-789 75l0 0c7,22 15,49 25,82 13,42 42,59 87,52 55,-8 104,-15 146,-22 14,-2 23,-13 23,-27 0,-2 0,-5 -1,-7l-257 -850c-8,-25 -33,-39 -57,-35l-283 46c-15,2 -27,16 -27,31 0,134 0,252 1,352 0,11 1,21 3,33 7,28 12,53 11,81 -4,164 -3,301 2,409 2,35 22,51 60,45 67,-9 128,-10 166,-35 12,-7 19,-21 20,-40 2,-35 1,-63 -3,-85 -4,-20 9,-39 29,-43 14,-3 28,-3 41,0 6,2 11,7 14,13l0 0zm2223 -183l0 0c45,0 80,0 104,1 81,1 138,-20 161,-100 19,-70 34,-146 44,-228 16,-128 -37,-205 -159,-231 -106,-22 -203,-41 -290,-54 -24,-4 -45,12 -49,35l-150 850c-1,3 -1,6 -1,9 0,22 16,41 38,45l152 26c34,6 54,-8 60,-42l49 -277c4,-21 21,-35 41,-34l0 0zm-3035 512l0 0c39,-10 69,-18 89,-23 16,-5 27,-19 27,-36 0,-3 0,-6 -1,-9 -77,-293 -133,-512 -169,-655 -15,-62 62,-55 96,-65 17,-5 28,-20 28,-37 0,-4 0,-7 -1,-11l-32 -118c-4,-15 -18,-26 -34,-26 -3,0 -6,0 -9,1 -77,20 -153,40 -228,59 -75,20 -151,38 -228,57 -16,4 -27,18 -27,34 0,3 1,6 1,8l29 120c4,17 20,30 38,30 3,0 5,-1 8,-1 35,-7 99,-50 115,11 38,143 93,362 165,656 4,17 19,28 36,28 3,0 6,0 8,-1 21,-5 50,-12 89,-22zm3810 -106l0 0c14,5 24,11 30,19 2,4 4,9 4,13 0,2 0,3 0,4 -4,20 -9,52 -18,96 -6,31 6,52 34,62 57,21 111,36 164,46 2,0 5,0 7,0 18,0 34,-13 37,-32l133 -870c1,-2 1,-4 1,-6 0,-17 -12,-33 -29,-38 -65,-19 -112,-33 -139,-41 -28,-9 -75,-22 -140,-42 -4,-1 -8,-2 -12,-2 -15,0 -29,9 -35,23l-366 801c-2,5 -4,10 -4,15 0,15 9,29 23,35 49,21 103,39 162,52 30,7 50,-5 62,-34 18,-41 30,-70 39,-89 2,-6 7,-10 13,-12 9,-4 20,-4 34,0zm-4687 -601l0 0c-3,-8 -12,-14 -21,-14 -3,0 -5,0 -8,1l-184 71c0,0 -1,0 -1,0 -16,7 -24,25 -18,42 0,0 0,0 0,0 174,450 266,690 276,719 15,46 34,80 56,102 18,17 38,22 60,16 50,-14 99,-34 149,-60 10,-5 16,-16 16,-27 0,-4 0,-7 -2,-11l-323 -839zm5409 1047l0 0c36,16 64,29 84,37 4,2 9,3 15,3 14,0 27,-8 33,-21 124,-279 216,-486 278,-622 27,-57 83,-4 117,10 20,8 42,-2 50,-21l49 -113c2,-5 3,-9 3,-14 0,-14 -8,-27 -21,-32 -73,-32 -145,-65 -216,-97 -71,-32 -143,-65 -215,-98 -5,-2 -10,-3 -15,-3 -13,0 -26,8 -32,20l-52 112c-9,19 -1,42 18,51 32,17 110,23 84,81 -61,136 -155,343 -282,620 -3,5 -4,10 -4,15 0,14 9,27 22,33 19,9 47,22 84,39zm-5961 18l0 0c-16,-21 -31,-50 -46,-87 -18,-46 -49,-58 -92,-36 -41,21 -82,43 -124,68 -17,10 -22,24 -17,43 24,78 71,137 140,178 135,78 329,-13 406,-129 24,-38 36,-69 34,-93 -5,-84 -32,-155 -82,-215 -63,-75 -134,-119 -213,-130 -47,-7 -90,-12 -131,-16 -74,-6 -119,-17 -144,-86 -7,-17 -10,-28 -10,-33 -2,-12 3,-24 15,-35 5,-4 12,-7 19,-7 8,0 16,4 21,11 10,13 25,33 47,61 20,27 46,31 78,14 49,-26 90,-48 123,-65 12,-6 17,-20 14,-32 -20,-71 -62,-122 -125,-154 -116,-59 -273,11 -359,98 -74,75 -78,161 -37,252 38,85 99,145 183,183 17,7 74,16 171,27 55,6 92,15 113,26 34,19 111,112 71,158 -6,8 -16,13 -27,13 -11,0 -22,-6 -28,-14l0 0zm6661 352l0 0c34,20 61,36 79,47 6,3 12,5 19,5 13,0 25,-7 31,-19 155,-263 270,-458 347,-585 33,-55 83,5 115,22 18,11 42,4 52,-15l62 -106c3,-6 5,-12 5,-18 0,-12 -7,-24 -18,-30 -69,-40 -137,-81 -203,-121 -67,-39 -135,-80 -203,-122 -6,-3 -12,-5 -18,-5 -13,0 -24,6 -30,17l-65 105c-11,18 -6,42 12,54 30,19 106,34 74,89 -75,128 -192,323 -351,584 -3,5 -5,12 -5,19 0,12 7,24 18,31 18,11 44,27 79,48zm-7430 -269l0 0c26,-46 33,-86 20,-119 -16,-44 -51,-96 -103,-155 -71,-80 -157,-98 -246,-41 -60,37 -151,96 -272,177 0,0 0,0 0,1 -21,13 -26,41 -13,61 1,0 1,0 1,0 135,197 268,388 397,574 26,38 48,86 69,118 30,46 68,51 117,15 36,-27 73,-55 112,-83 9,-7 15,-18 15,-29 0,-8 -2,-15 -7,-21l-207 -299c-12,-17 -8,-29 12,-36l9 -4c15,-5 28,0 38,14 67,90 125,170 173,240 36,53 81,61 134,23 31,-21 59,-41 83,-61 16,-12 19,-35 7,-51 -52,-72 -104,-146 -154,-221 -50,-74 -91,-102 -180,-94 -7,0 -9,-3 -5,-9zm4579 1803l0 0c136,-119 266,-244 391,-375 237,-248 390,-551 400,-896 7,-259 -57,-498 -192,-719 -9,-15 -14,-13 -14,4 -3,166 -17,336 -40,511 -23,166 -70,307 -144,423 -65,103 -176,218 -332,346 -106,86 -244,160 -416,222 -173,62 -348,100 -523,114 -15,1 -17,-3 -7,-14 154,-167 298,-341 433,-523 135,-184 212,-426 218,-676 1,-29 2,-78 4,-148 3,-85 -1,-182 -11,-291 -4,-50 -13,-51 -27,-3 -73,263 -149,510 -328,704 -93,101 -205,210 -336,327 -184,163 -381,301 -592,412 -218,115 -432,207 -641,276 -34,12 -173,57 -417,138 -230,75 -445,171 -644,288 -160,93 -276,193 -375,345 -128,199 -204,412 -219,647 -13,217 15,435 84,655 5,15 19,25 35,25 13,0 25,-7 31,-18 5,-8 13,-22 23,-43 69,-131 205,-204 353,-214 58,-4 122,1 193,13 36,7 56,-8 59,-43 24,-271 121,-545 359,-681 115,-65 241,-105 379,-119 151,-15 356,-28 615,-37 81,-3 174,-3 279,-1 126,4 219,9 278,17 167,22 290,38 371,47 437,53 876,33 1315,-59 296,-62 582,-183 767,-423 216,-279 308,-621 309,-974 0,-170 -9,-331 -26,-483 -20,-166 -37,-330 -52,-492 -1,-20 -8,-35 -19,-48 -5,-6 -8,-5 -9,4 -1,256 -32,507 -92,754 -85,353 -276,626 -573,819 -255,167 -554,204 -864,195 -1,0 -1,0 -2,0 -1,-1 -2,-3 -2,-5 1,-1 1,-1 1,-1l0 0zm3334 -1252l0 0c-3,4 -5,9 -5,13 0,8 4,14 9,18l159 119c6,4 13,6 19,6 11,0 20,-5 26,-13 288,-388 442,-595 461,-618 31,-38 49,-72 56,-103 5,-24 -1,-43 -18,-59 -39,-35 -82,-66 -131,-94 -4,-2 -10,-4 -15,-4 -10,0 -19,5 -25,12l-536 723zm-8618 123l0 0 69 -74c5,-5 8,-12 8,-19 0,-6 -3,-13 -7,-18l-77 -87c-9,-9 -20,-14 -32,-14 -12,0 -23,4 -31,13l-46 48c-8,8 -18,12 -29,12 -11,0 -22,-5 -29,-13l-69 -77c-12,-14 -12,-28 1,-41l69 -73c8,-8 12,-18 12,-28 0,-10 -4,-20 -11,-28l-71 -80c-8,-9 -20,-14 -32,-14 -10,0 -20,4 -28,11l-249 221c-20,18 -22,38 -3,59l589 662c0,0 0,0 0,0 9,10 24,10 33,2 0,0 0,0 0,0l286 -254c5,-5 8,-11 8,-18 0,-5 -1,-10 -4,-14 -25,-37 -56,-72 -92,-105 -22,-21 -42,-21 -59,-1 -31,36 -85,112 -126,66 -17,-19 -44,-52 -82,-100 -4,-5 -6,-11 -6,-17 0,-7 3,-14 8,-19l0 0zm9528 132l0 0c-82,124 -143,210 -182,257 -42,51 -45,95 -7,129 31,27 70,59 107,28 66,-55 171,-139 316,-251 25,-19 27,-17 7,8 -67,81 -147,168 -239,260 -77,78 4,137 56,187 26,26 53,24 79,-4 176,-187 374,-395 596,-622 0,0 0,-1 1,-1 13,-14 13,-36 -2,-50 0,0 0,0 0,0l-184 -176c-19,-18 -39,-19 -60,-2l-268 219c-18,14 -20,12 -7,-6l202 -285c6,-8 9,-17 9,-26 0,-13 -5,-24 -14,-33l-172 -164c-10,-9 -22,-14 -35,-14 -14,0 -27,6 -36,16l-586 614c-10,10 -15,23 -15,37 0,15 6,29 16,40l99 93c5,5 12,8 19,8 7,0 14,-3 19,-8l278 -257c10,-10 12,-9 3,3zm-10197 490l0 0c-3,4 -134,-88 -392,-276 -35,-26 -65,-24 -90,6 -65,76 -101,118 -109,126 -16,18 -16,35 1,51 0,0 0,0 0,0 0,0 0,0 0,0l749 492c15,10 36,7 48,-6 17,-19 52,-59 105,-119 52,-60 87,-99 104,-119 12,-13 12,-34 0,-48l-584 -679c0,0 0,0 0,0 0,-1 0,-1 -1,-1 -18,-14 -35,-12 -50,6 -7,8 -44,50 -111,124 -27,29 -25,59 5,90 220,232 328,350 325,353zm10798 539l0 0c-2,0 -4,-1 -6,-3 -9,-7 -8,-23 3,-35 1,-2 3,-4 6,-6 122,-96 298,-233 527,-410 34,-27 52,-49 54,-66 3,-23 0,-41 -9,-54 -32,-45 -65,-86 -100,-124 -5,-6 -12,-9 -19,-9 -6,0 -11,2 -16,5 -240,179 -429,327 -569,445 -24,20 -42,40 -54,59 -70,118 11,291 103,369 108,92 241,59 346,-20 126,-95 251,-192 375,-290 36,-29 89,-54 119,-80 52,-45 31,-87 -8,-131 -27,-29 -50,-57 -70,-82 -19,-24 -40,-26 -64,-8l-576 445c-2,1 -3,2 -4,3 -14,8 -30,6 -36,-4 -1,-1 -1,-2 -2,-3 0,0 0,-1 0,-1zm-10876 197l0 0 -708 -510c0,0 -1,0 -1,-1 -35,-24 -84,-16 -108,19 -1,1 -1,2 -2,2l-73 116c-12,19 -6,45 13,59 5,3 230,162 675,477 45,32 86,24 120,-26 11,-17 40,-57 86,-123 1,-2 2,-4 2,-5 0,-4 -2,-6 -4,-8l0 0zm11782 547l0 0c44,37 91,45 140,24 62,-26 149,-78 188,-130 76,-102 18,-181 -44,-297 -29,-54 -65,-118 -107,-191 -10,-16 -30,-21 -46,-12l-757 438c-21,11 -28,37 -16,58l86 148c0,0 0,0 0,0 11,18 34,25 53,14 0,0 0,0 0,0l318 -184c9,-5 16,-3 21,6l9 15c2,5 4,11 4,16 0,11 -6,21 -15,27 -105,66 -200,121 -284,164 -40,21 -49,49 -26,87 34,56 61,99 79,127 9,14 28,18 42,9 94,-59 181,-110 262,-154 57,-30 85,-84 84,-161 0,-8 3,-10 9,-4zm-12720 -140l0 0c-109,-24 -219,-45 -330,-63 -11,-2 -26,-1 -44,4 -34,10 -65,68 -80,97 -14,26 -21,40 -21,40 -3,24 4,39 19,48 278,154 514,287 709,397 35,20 84,44 112,-1 31,-50 96,-130 34,-162 -92,-49 -181,-98 -264,-149 -25,-15 -23,-20 5,-13 79,17 171,37 277,60 53,11 83,9 115,-36 28,-39 48,-75 61,-105 8,-20 0,-43 -19,-54 -225,-124 -456,-253 -692,-386 -44,-25 -95,-55 -131,-4 -25,38 -45,74 -58,106 -6,15 0,33 14,41l296 171c18,10 17,13 -3,9zm12727 916l0 0 20 49c3,6 2,11 -4,15 -21,17 -46,29 -74,39 -25,8 -40,17 -46,27 -12,22 -14,42 -5,60 26,56 50,110 71,160 4,10 14,17 25,17 5,0 10,-2 15,-4l763 -462c13,-8 22,-23 22,-39 0,-7 -1,-13 -4,-18l-106 -255c-9,-20 -29,-33 -51,-33 -4,0 -9,1 -14,2l-838 230c-25,7 -33,23 -25,47 15,40 33,90 56,150 21,55 55,53 104,33 33,-14 58,-23 73,-27 8,-2 14,1 18,9zm-12770 161l0 0c-4,10 -9,16 -16,19 -5,2 -13,2 -21,-1 -188,-71 -415,-161 -681,-269 -5,-2 -11,-3 -16,-3 -17,0 -32,10 -39,26l-64 152c1,0 0,0 0,1 -10,24 2,53 27,63 0,0 1,0 1,0 115,43 301,116 559,218 84,34 145,50 183,48 109,-4 186,-91 226,-191 39,-99 43,-215 -34,-294 -26,-26 -82,-57 -166,-90 -257,-103 -442,-177 -556,-225 0,0 0,0 0,0 -25,-10 -53,2 -63,27 -1,0 -1,0 -1,0l-58 155c-2,5 -3,10 -3,15 0,18 11,33 27,40 268,103 494,194 680,271 8,4 14,8 16,14 3,7 3,15 -1,24zm3796 210l0 0c101,-29 180,-26 280,-29 6,0 11,-5 11,-11 0,-3 -1,-5 -2,-7 -30,-48 -50,-82 -61,-99 -49,-78 -134,-65 -211,-49 -151,30 -275,108 -373,232 -21,27 -24,64 -6,94l59 103c12,21 22,20 31,-2 48,-116 138,-193 272,-232zm99 938l0 0c104,-160 256,-274 445,-317 53,-12 104,-21 153,-28 10,-1 17,-10 17,-20 0,-4 -1,-8 -3,-11 -74,-108 -151,-219 -231,-335 -16,-23 -29,-29 -56,-28 -240,10 -451,95 -557,324 -6,12 -5,26 2,37l218 378c1,2 3,3 6,3 2,0 4,-1 6,-3l0 0zm778 1408l0 0c64,-197 185,-331 364,-401 114,-44 225,-77 335,-97 5,-1 8,-5 8,-10 0,-2 -1,-4 -2,-6 -415,-602 -644,-934 -687,-996 -20,-29 -42,-45 -67,-47 -41,-3 -93,6 -157,25 -188,57 -333,167 -435,331 -15,24 -15,49 -1,74 13,24 220,401 621,1129 8,15 15,14 21,-2zm485 2664l0 0c-11,25 -13,65 -8,119 0,1 0,1 0,2 -1,4 -4,6 -8,5 0,0 -1,-1 -2,-1 -3,-2 -5,-5 -7,-9 -92,-203 -236,-347 -433,-434 -6,-2 -14,-12 -25,-30 -36,-103 -70,-207 -100,-311 -195,-679 -362,-1259 -499,-1740 -14,-47 -31,-83 -53,-106 -34,-37 -83,-78 -148,-124 -38,-27 -95,-56 -170,-89 -173,-76 -578,-254 -1216,-533 -3,-1 -6,-2 -9,-2 -11,0 -21,9 -22,21 -7,70 -36,133 -87,190 -43,47 -246,257 -610,629 -19,20 -32,46 -41,79 -40,151 -14,288 77,413 87,119 151,205 192,257 392,502 699,904 923,1205 184,247 378,523 581,827 6,8 8,18 5,29 0,0 -1,1 -1,1 -3,9 -12,13 -21,10 0,-1 -1,-1 -1,-1 -111,-59 -195,-111 -301,-195 -163,-129 -367,-280 -612,-455 -73,-52 -137,-107 -191,-164 -125,-132 -244,-272 -356,-418 -69,-90 -147,-211 -234,-361 -184,-319 -330,-655 -438,-1011 -57,-188 -95,-302 -113,-344 -58,-129 -130,-250 -216,-362 -46,-60 -90,-104 -131,-132 -318,-214 -674,-322 -1069,-325 -87,-1 -171,1 -250,7 -20,1 -20,5 -2,12 204,82 395,202 571,360 91,81 159,168 200,272 141,347 283,758 426,1234 58,190 142,350 253,480 200,235 448,485 746,750 58,51 116,90 174,115 425,190 917,396 1476,618 2,1 4,3 4,5 0,2 -2,4 -3,5 -10,4 -21,7 -35,9 -72,8 -146,14 -223,17 -106,5 -179,13 -221,25 -95,27 -174,66 -238,117 -131,105 -233,243 -305,413 0,1 -23,80 -70,237 -57,190 -144,365 -262,525 -58,80 -150,174 -219,262 -5,5 -3,8 3,10 143,39 284,47 424,25 104,-16 198,-55 281,-116 261,-191 433,-439 515,-744 35,-125 56,-199 65,-220 42,-104 99,-200 171,-289 68,-84 149,-157 244,-219l41 166c-95,229 -254,470 -357,637 -44,73 -71,128 -80,168 -40,176 49,351 174,472 37,36 90,78 161,128 48,34 96,54 142,60 27,4 70,-3 131,-21 124,-36 253,-46 386,-31 78,9 131,11 158,6 64,-11 123,-39 177,-83 104,-86 220,-205 267,-332 12,-35 25,-100 38,-196 14,-100 27,-166 40,-198 28,-66 76,-115 144,-147 29,-13 54,-11 78,6 19,14 34,34 45,61 50,119 102,242 191,308 67,49 139,104 215,164 29,23 79,55 108,64 288,93 553,232 810,382 56,33 110,42 163,12 254,-142 420,-231 499,-265 76,-34 167,-71 270,-110 137,-52 261,-130 371,-234 62,-58 115,-133 159,-225 29,-61 46,-95 49,-102 12,-25 23,-42 35,-50 50,-36 91,-22 138,19 48,41 100,87 104,150 2,44 7,78 13,103 4,13 20,88 49,227 13,59 33,107 60,145 32,44 92,108 180,190 96,90 204,127 325,111 41,-5 98,-11 170,-17 35,-3 85,3 150,19 86,21 158,38 218,50 20,3 40,0 60,-10 179,-88 337,-226 416,-416 47,-114 38,-248 -25,-350 -95,-154 -180,-294 -256,-420 -43,-71 -85,-158 -127,-237l53 -190c177,129 351,323 407,539 81,307 193,576 412,792 233,231 513,305 842,221 2,0 4,-1 5,-2 9,-5 12,-16 7,-26 0,-1 -1,-2 -2,-3 -110,-122 -203,-238 -280,-348 -54,-78 -93,-146 -115,-202 -24,-61 -46,-136 -68,-223 -43,-178 -118,-340 -224,-486 -102,-140 -233,-232 -393,-276 -149,-40 -346,-16 -474,-50 -11,-3 -11,-7 -1,-11 423,-174 871,-361 1345,-560 89,-38 178,-82 247,-135 85,-66 182,-151 291,-256 72,-69 200,-198 383,-387 110,-113 204,-243 283,-391 36,-69 80,-186 130,-354 97,-324 208,-651 334,-981 33,-85 62,-170 110,-238 169,-238 450,-420 728,-534 17,-7 17,-11 -2,-12 -167,-6 -323,-3 -469,11 -312,29 -679,156 -912,366 -131,117 -210,259 -283,424 -44,103 -98,256 -160,460 -68,222 -166,461 -294,715 -101,202 -225,394 -372,578 -70,87 -136,171 -198,253 -51,66 -105,129 -160,174 -151,124 -364,271 -541,410 -183,144 -333,262 -520,371 -4,2 -8,3 -12,3 -8,0 -16,-4 -20,-11 -8,-13 -8,-24 1,-34 6,-7 9,-11 10,-12 307,-450 522,-756 647,-918 432,-563 710,-925 834,-1087 80,-104 127,-167 143,-188 66,-86 108,-152 127,-198 45,-112 42,-219 -10,-321 -23,-45 -87,-121 -193,-228 -262,-266 -407,-415 -436,-448 -51,-58 -80,-122 -87,-190 -1,-12 -12,-22 -25,-22 -3,0 -6,1 -10,2 -472,204 -894,388 -1267,554 -67,30 -127,68 -180,114 -82,70 -136,159 -161,265 -29,116 -47,189 -56,219 -119,390 -230,772 -333,1147 -37,132 -99,338 -189,617 -2,11 -7,18 -14,21 -169,82 -297,205 -384,371 -14,26 -26,52 -37,80 -3,10 -6,10 -7,-1l-25 -191c122,-479 235,-1000 339,-1564 60,-322 57,-634 -7,-936 -33,-155 -93,-280 -209,-367 -83,-62 -184,-112 -302,-148 -75,-23 -220,-72 -435,-146 -50,-17 -133,-55 -249,-115 -37,-18 -96,-35 -131,-67 -104,-94 -207,-190 -309,-286 -14,-13 -32,-21 -51,-21 -19,0 -37,7 -51,20 -51,46 -113,106 -186,179 -81,82 -146,122 -241,172 -104,54 -206,100 -308,140 -18,7 -135,43 -352,108 -212,64 -446,184 -514,409 -21,68 -38,146 -54,234 -21,123 -27,261 -35,387 -5,75 -3,141 6,197 84,528 195,1063 332,1605 2,6 11,48 28,126 8,39 19,81 33,126zm2645 3023l0 0c0,0 0,0 0,0 0,-149 -121,-270 -270,-270l-73 0c-1,0 -1,0 -1,0 -149,0 -270,120 -270,269l-1 505c0,0 0,0 0,0 0,149 121,270 270,270l74 1c0,0 0,0 0,0 149,0 270,-121 270,-270l1 -505zm-3367 574l0 0c24,0 37,12 38,37 4,63 5,95 5,97 1,40 25,59 63,55 54,-6 112,-6 175,0 19,1 30,-7 32,-27 0,-6 0,-16 -3,-32 -22,-150 -60,-402 -115,-758 -5,-30 -7,-57 -7,-81 -1,-42 -5,-69 -13,-82 -20,-32 -41,-47 -64,-46 -92,6 -185,7 -280,5 -1,0 -1,0 -1,0 -25,0 -46,18 -50,43l-125 925c-4,32 10,48 42,50 65,3 121,5 169,4 46,-1 69,-23 69,-69 -1,-44 -1,-72 -1,-83 1,-25 13,-38 38,-38l28 0zm1025 -450l0 0 -56 -346c-3,-20 -21,-34 -41,-34l-270 0c0,0 0,0 0,0 -21,0 -37,16 -38,37 -2,350 -1,638 1,865 1,45 1,103 48,110 46,7 96,8 153,4 19,-1 34,-17 34,-36l0 -539c0,-3 1,-4 3,-3l9 4c3,2 5,5 6,8 10,72 33,244 68,515 8,60 59,55 109,53 43,-2 71,-15 76,-60 18,-177 39,-354 63,-531 0,-3 2,-5 6,-5l5 0c1,0 2,1 2,2 -4,173 -2,349 6,529 1,38 19,59 52,63 51,5 104,5 157,-2 13,-1 24,-13 24,-26l0 -956c0,-18 -14,-32 -32,-32l-270 0c-27,1 -49,20 -52,46l-45 334c-6,41 -12,41 -18,0zm1271 80l0 0c55,-22 85,-59 90,-111 6,-59 3,-120 -7,-182 -17,-96 -89,-144 -185,-158 -49,-7 -85,-10 -109,-10 -86,-1 -174,-1 -264,0 -19,0 -29,9 -29,28l0 963c0,17 9,25 26,26 158,4 293,3 406,-4 83,-5 153,-27 171,-113 18,-85 22,-176 12,-271 -9,-80 -46,-133 -111,-159 -8,-3 -8,-6 0,-9zm1789 -94l0 0c0,31 -6,32 -17,3 -25,-63 -61,-164 -110,-303 -29,-85 -121,-67 -199,-67 -29,0 -44,15 -44,43 -1,284 -1,567 -1,850 0,38 0,111 47,120 43,7 94,9 152,3 15,-1 27,-14 27,-30l0 -371c0,-30 4,-31 13,-2 29,101 61,206 95,315 19,62 60,92 122,91 45,0 78,-1 98,-1 28,-1 43,-18 43,-52 0,-565 0,-860 0,-884 0,-25 -7,-46 -22,-63 -4,-5 -9,-8 -16,-9 -80,-14 -132,-17 -154,-9 -24,9 -36,29 -36,61 1,54 2,156 2,305z"/>
   <path class="fil0" d="M9804 3786c33,17 59,-1 66,-37 10,-44 5,-85 -14,-120 -13,-23 -41,-48 -85,-75 -45,-28 -94,-60 -145,-98 -97,-72 -109,-235 -79,-343 16,-56 53,-96 111,-119 114,-45 302,-43 385,62 39,50 52,115 38,195 -3,16 -13,23 -28,23l-181 0c-14,0 -25,-11 -25,-24l0 -77c0,-22 -10,-33 -31,-36l-6 0c-21,3 -33,10 -36,23 -17,70 3,126 69,163 24,13 55,32 95,57 137,86 195,216 173,390 -23,189 -276,221 -416,164 -109,-43 -162,-162 -152,-276 2,-22 6,-38 11,-47 4,-6 9,-9 16,-10 79,-8 138,-6 176,5 20,6 31,24 32,54 3,45 7,82 14,111 1,6 6,12 11,15l1 0z"/>
   <path class="fil0" d="M8989 3833c-13,-3 -27,-3 -41,0 -20,4 -33,23 -29,43 4,22 5,50 3,85 -1,19 -8,33 -20,40 -38,25 -99,26 -166,35 -38,6 -58,-10 -60,-45 -5,-108 -6,-245 -2,-409 1,-28 -4,-53 -11,-81 -2,-12 -3,-22 -3,-33 -1,-100 -1,-218 -1,-352 0,-15 12,-29 27,-31l284 -46c23,-4 48,10 55,34l258 851c1,2 1,5 1,7 0,14 -9,25 -23,27 -42,7 -91,14 -146,22 -45,7 -74,-10 -87,-52 -10,-33 -18,-60 -25,-82 -3,-6 -8,-11 -14,-13l0 0zm-61 -163l0 0c11,-1 19,-4 25,-7 11,-6 17,-19 14,-32 -25,-103 -50,-202 -74,-295 -1,-5 -3,-7 -6,-7 -5,1 -7,4 -7,9 -1,96 0,197 0,303 1,14 10,25 23,29 5,1 14,1 25,0z"/>
   <path class="fil0" d="M11226 3663c-20,-1 -37,13 -41,33l-49 278c-6,34 -26,48 -60,42l-152 -26c-22,-4 -38,-23 -38,-45 0,-3 0,-6 1,-9l150 -850c4,-23 25,-39 49,-35 87,13 184,32 290,54 122,26 175,103 159,231 -10,82 -25,158 -44,228 -23,80 -80,101 -161,100 -24,-1 -59,-1 -104,-1zm28 -397l0 0 -35 203c0,1 0,3 0,4 0,8 6,16 14,17l19 3c0,0 0,0 0,0 26,5 53,-19 59,-54l20 -114c6,-34 -11,-66 -38,-70l-19 -4c0,0 -1,0 -2,0 -9,0 -16,6 -18,15z"/>
   <path class="fil0" d="M8191 4175c-39,10 -68,17 -89,22 -2,1 -5,1 -8,1 -17,0 -32,-11 -36,-28 -72,-294 -127,-513 -165,-656 -16,-61 -80,-18 -115,-11 -3,0 -5,1 -8,1 -18,0 -34,-13 -38,-30l-29 -120c0,-2 -1,-5 -1,-8 0,-16 11,-30 27,-34 77,-19 153,-37 228,-57 75,-19 151,-39 228,-59 3,-1 6,-1 9,-1 16,0 30,11 34,26l32 118c1,4 1,7 1,11 0,17 -11,32 -28,37 -34,10 -111,3 -96,65 36,143 92,362 169,655 1,3 1,6 1,9 0,17 -11,31 -27,36 -20,5 -50,13 -89,23z"/>
   <path class="fil1" d="M11254 3266c2,-9 9,-15 18,-15 1,0 2,0 2,0l19 4c27,4 44,36 38,70l-20 114c-6,35 -33,59 -59,54 0,0 0,0 0,0l-19 -3c-8,-1 -14,-9 -14,-17 0,-1 0,-3 0,-4l35 -203z"/>
   <path class="fil0" d="M12225 3322c27,8 74,22 139,41 17,5 29,21 29,38 0,2 0,4 -1,6l-133 870c-3,19 -19,32 -37,32 -2,0 -5,0 -7,0 -53,-10 -107,-25 -164,-46 -28,-10 -40,-31 -34,-62 9,-44 14,-76 18,-96 0,-1 0,-2 0,-4 0,-4 -2,-9 -4,-13 -6,-8 -16,-14 -30,-19 -14,-4 -25,-4 -34,0 -6,2 -11,6 -13,12 -9,19 -21,48 -39,89 -12,29 -32,41 -62,34 -59,-13 -113,-31 -162,-52 -14,-6 -23,-20 -23,-35 0,-5 2,-10 4,-15l366 -801c6,-14 20,-23 35,-23 4,0 8,1 12,2 65,20 112,33 140,42zm-177 589l0 0c11,4 19,5 26,5 14,-2 25,-12 27,-25 21,-107 40,-208 57,-305 1,-5 0,-8 -3,-10 -4,-1 -8,1 -10,6 -41,89 -84,183 -129,282 -6,13 -2,27 8,36 5,4 13,8 24,11z"/>
   <path class="fil1" d="M8928 3670c-11,1 -20,1 -26,0 -12,-4 -21,-15 -22,-28 0,-107 -1,-208 0,-304 0,-5 2,-8 7,-9 3,0 5,2 6,7 24,93 49,192 74,295 3,13 -3,26 -14,33 -6,2 -14,5 -25,6z"/>
   <path class="fil0" d="M7314 3468l323 839c2,4 2,7 2,11 0,11 -6,22 -16,27 -50,26 -99,46 -149,60 -22,6 -42,1 -60,-16 -22,-22 -41,-56 -56,-102 -10,-29 -102,-269 -276,-719 0,0 0,0 0,0 -6,-17 2,-35 18,-42 0,0 1,0 1,0l184 -71c3,-1 5,-1 8,-1 9,0 18,6 21,14z"/>
   <path class="fil0" d="M12723 4515c-37,-17 -65,-30 -84,-39 -13,-6 -22,-19 -22,-33 0,-5 1,-10 4,-15 127,-277 221,-484 282,-620 26,-58 -52,-64 -84,-81 -19,-9 -27,-32 -18,-51l52 -112c6,-12 19,-20 32,-20 5,0 10,1 15,3 72,33 144,66 215,98 71,32 143,65 216,97 13,5 21,18 21,32 0,5 -1,9 -3,14l-49 113c-8,19 -30,29 -50,21 -34,-14 -90,-67 -117,-10 -62,136 -154,343 -278,622 -6,13 -19,21 -33,21 -6,0 -11,-1 -15,-3 -20,-8 -48,-21 -84,-37z"/>
   <path class="fil1" d="M12048 3911c-11,-3 -19,-7 -24,-11 -10,-9 -14,-23 -8,-36 45,-99 88,-193 129,-282 2,-5 6,-7 10,-6 3,2 4,5 3,10 -17,97 -36,199 -57,305 -2,13 -13,23 -27,25 -6,0 -15,-1 -26,-5z"/>
   <path class="fil0" d="M6762 4533c6,8 17,14 28,14 11,0 21,-5 27,-13 40,-46 -37,-139 -71,-158 -21,-11 -58,-20 -113,-26 -97,-11 -154,-20 -171,-27 -84,-38 -145,-98 -183,-183 -41,-91 -37,-177 37,-252 86,-87 243,-157 359,-98 63,32 105,83 125,154 3,12 -2,26 -14,32 -33,17 -74,39 -123,65 -32,17 -58,13 -78,-14 -22,-28 -37,-48 -47,-61 -5,-7 -13,-11 -21,-11 -7,0 -14,3 -19,7 -12,11 -17,23 -15,35 0,5 3,16 10,33 25,69 70,80 144,86 41,4 84,9 131,16 79,11 150,55 213,130 50,60 77,131 82,215 2,24 -10,55 -34,93 -77,116 -271,207 -406,129 -69,-41 -116,-100 -140,-178 -5,-19 0,-33 17,-43 42,-25 83,-47 124,-68 43,-22 74,-10 92,36 15,37 30,66 46,87z"/>
   <path class="fil0" d="M13912 4065c66,40 134,81 203,121 11,6 18,18 18,30 0,6 -2,12 -5,18l-62 106c-10,19 -34,26 -52,16 -32,-18 -82,-78 -115,-23 -77,127 -192,322 -347,585 -6,12 -18,19 -31,19 -7,0 -13,-2 -19,-5 -18,-11 -45,-27 -79,-47 -35,-21 -61,-37 -79,-48 -11,-7 -18,-19 -18,-31 0,-7 2,-14 5,-19 159,-261 276,-456 351,-584 32,-55 -44,-70 -74,-90 -18,-11 -23,-35 -12,-53l65 -105c6,-11 17,-17 30,-17 6,0 12,2 18,5 68,42 136,83 203,122z"/>
   <path class="fil0" d="M5998 4625c89,-8 130,20 180,94 50,75 102,149 154,221 12,16 9,39 -6,51 -25,19 -53,40 -84,61 -53,38 -98,30 -134,-23 -48,-70 -106,-150 -173,-240 -10,-14 -23,-19 -38,-14l-9 4c-20,7 -24,19 -12,36l207 299c5,6 7,13 7,21 0,11 -6,22 -15,29 -39,28 -76,56 -112,83 -49,36 -87,31 -117,-15 -21,-32 -43,-80 -69,-118 -129,-186 -262,-377 -397,-573 0,-1 0,-1 -1,-1 -13,-20 -8,-48 13,-61 0,-1 0,-1 0,-1 121,-81 212,-140 272,-177 89,-57 175,-39 246,41 52,59 87,111 103,155 13,33 6,73 -20,119 -4,6 -2,9 5,9zm-339 -111l0 0 103 147c4,5 9,8 15,8 3,0 7,-2 10,-4l5 -4c0,0 0,0 0,0 27,-18 30,-59 7,-92l-41 -58c-23,-33 -62,-44 -89,-25 0,0 0,0 0,0l-5 4c-5,3 -8,8 -8,14 0,3 1,7 3,10l0 0z"/>
   <path class="fil2" d="M10572 6419c0,0 0,0 -1,1 0,2 1,4 2,5 1,0 1,0 2,0 310,9 609,-28 864,-195 297,-193 488,-466 573,-819 60,-247 91,-498 92,-754 1,-9 4,-10 9,-4 11,13 18,28 19,48 15,162 32,326 52,492 17,152 26,313 26,483 -1,353 -93,695 -309,974 -185,240 -471,361 -767,423 -439,92 -878,112 -1315,59 -81,-9 -204,-25 -371,-47 -59,-8 -152,-13 -278,-17 -105,-2 -198,-2 -279,1 -259,9 -464,22 -615,37 -138,14 -264,54 -379,119 -238,136 -335,410 -359,681 -3,35 -23,50 -59,43 -71,-12 -135,-17 -193,-13 -148,10 -284,83 -353,214 -10,21 -18,35 -23,43 -6,11 -18,18 -31,18 -16,0 -30,-10 -35,-25 -69,-220 -97,-438 -84,-655 15,-235 91,-448 219,-647 99,-152 215,-252 375,-345 199,-117 414,-213 644,-288 244,-81 383,-126 417,-138 209,-69 423,-161 641,-276 211,-111 408,-249 592,-412 131,-117 243,-226 336,-327 179,-194 255,-441 328,-704 14,-48 23,-47 27,3 10,109 14,206 11,291 -2,70 -3,119 -4,148 -6,250 -83,492 -218,676 -135,182 -279,356 -433,523 -10,11 -8,15 7,14 175,-14 350,-52 523,-114 172,-62 310,-136 416,-222 156,-128 267,-243 332,-346 74,-116 121,-257 144,-423 23,-175 37,-345 40,-511 0,-17 5,-19 14,-4 135,221 199,460 192,719 -10,345 -163,648 -400,896 -125,131 -255,256 -391,375z"/>
   <path class="fil0" d="M13906 5167l536 -723c6,-7 15,-12 25,-12 5,0 11,2 15,4 49,28 92,59 131,94 17,16 23,35 18,59 -7,31 -25,65 -56,103 -19,23 -173,230 -461,618 -6,8 -15,13 -26,13 -6,0 -13,-2 -19,-6l-159 -119c-5,-4 -9,-10 -9,-18 0,-4 2,-9 5,-13z"/>
   <path class="fil1" d="M5659 4514c-2,-3 -3,-7 -3,-10 0,-6 3,-11 8,-14l5 -4c0,0 0,0 0,0 27,-19 66,-8 89,25l41 58c23,33 20,74 -7,92 0,0 0,0 0,0l-5 4c-3,2 -7,4 -10,4 -6,0 -11,-3 -15,-8l-103 -147z"/>
   <path class="fil0" d="M5288 5290c-5,5 -8,12 -8,19 0,6 2,12 6,17 38,48 65,81 82,100 41,46 95,-30 126,-66 17,-20 37,-20 59,1 36,33 67,68 92,105 3,4 4,9 4,14 0,7 -3,13 -8,18l-286 254c0,0 0,0 0,0 -9,8 -24,8 -33,-2 0,0 0,0 0,0l-589 -662c-19,-21 -17,-41 3,-59l249 -221c8,-7 18,-11 28,-11 12,0 24,5 32,14l71 80c7,8 11,18 11,28 0,10 -4,20 -12,28l-69 73c-13,13 -13,27 -1,41l69 77c7,8 18,13 29,13 11,0 21,-4 29,-12l46 -48c8,-9 19,-13 31,-13 12,0 23,5 32,14l77 87c4,5 7,12 7,18 0,7 -3,14 -8,19l-69 74z"/>
   <path class="fil0" d="M14813 5419l-278 257c-5,5 -12,8 -19,8 -7,0 -14,-3 -19,-8l-99 -93c-10,-11 -16,-25 -16,-40 0,-14 5,-27 15,-37l586 -614c9,-10 22,-16 36,-16 13,0 25,5 35,14l172 164c9,9 14,20 14,33 0,9 -3,18 -9,26l-202 285c-13,18 -11,20 7,6l268 -219c21,-17 41,-16 60,2l184 176c0,0 0,0 0,0 15,14 15,36 2,50 -1,0 -1,1 -1,1 -222,227 -420,435 -596,622 -26,28 -53,30 -79,4 -52,-50 -133,-109 -56,-187 92,-92 172,-179 239,-260 20,-25 18,-27 -7,-8 -145,112 -250,196 -316,251 -37,31 -76,-1 -107,-28 -38,-34 -35,-78 7,-129 39,-47 100,-133 182,-257 9,-12 7,-13 -3,-3z"/>
   <path class="fil0" d="M4931 6186c-53,60 -88,99 -105,118 -12,14 -33,17 -48,7l-749 -492c0,0 0,0 0,0 0,0 0,0 0,0 -17,-16 -17,-33 -1,-51 8,-8 44,-50 109,-126 25,-30 55,-32 90,-6 258,188 389,280 392,276 3,-3 -105,-121 -325,-353 -30,-31 -32,-61 -5,-90 67,-74 104,-116 111,-124 15,-18 32,-20 50,-6 1,0 1,0 1,1 0,0 0,0 0,0l584 679c12,14 12,35 -1,49 -16,19 -51,58 -103,118z"/>
   <path class="fil0" d="M15417 6451c0,0 1,1 1,1 0,1 0,2 1,3 6,10 22,12 36,4 1,-1 2,-2 4,-3l576 -445c24,-18 45,-16 64,8 20,25 43,53 70,82 39,44 60,86 8,131 -30,26 -83,51 -119,80 -124,98 -249,195 -375,290 -105,79 -238,112 -346,20 -92,-78 -173,-251 -103,-369 12,-19 30,-39 54,-59 140,-118 329,-266 569,-445 5,-3 10,-5 16,-5 7,0 14,3 19,9 35,38 68,79 100,124 9,13 12,31 9,54 -2,17 -20,39 -54,66 -229,177 -405,314 -528,410 -2,2 -4,4 -5,6 -11,12 -12,28 -3,35 2,2 4,3 6,3l0 0z"/>
   <path class="fil0" d="M3833 6138l708 510c2,2 4,4 4,8 0,1 -1,3 -2,5 -46,66 -75,106 -86,123 -34,50 -75,58 -120,26 -445,-315 -670,-474 -675,-478 -19,-13 -25,-39 -13,-58l73 -115c1,-1 1,-2 2,-3 24,-35 73,-43 108,-19 0,1 1,1 2,1l-1 0z"/>
   <path class="fil0" d="M16314 7199c1,77 -27,131 -84,161 -81,44 -168,95 -261,154 -15,9 -34,5 -43,-9 -18,-29 -45,-71 -79,-127 -23,-38 -14,-66 26,-87 84,-43 179,-98 284,-164 9,-6 15,-16 15,-27 0,-5 -2,-11 -4,-16l-9 -15c-5,-9 -12,-11 -21,-6l-318 184c0,0 0,0 0,0 -19,11 -42,4 -53,-14 0,0 0,0 0,0l-86 -148c-12,-21 -5,-47 16,-58l758 -438c15,-9 35,-4 44,12 43,73 79,137 108,191 62,116 120,195 44,297 -39,52 -126,104 -188,130 -49,21 -96,13 -140,-24 -6,-6 -9,-4 -9,4zm136 -326l0 0 -156 94c-5,3 -8,9 -8,15 0,3 1,6 3,9l3 6c17,27 60,31 98,9l49 -30c0,0 0,0 0,0 37,-22 54,-63 38,-91l-4 -6c-3,-5 -9,-8 -15,-8 -3,0 -6,1 -8,2z"/>
   <path class="fil0" d="M3603 7055c20,4 21,1 3,-9l-296 -171c-14,-8 -20,-26 -14,-41 13,-32 33,-68 58,-106 36,-51 87,-21 131,4 236,133 467,262 692,386 19,11 27,34 19,54 -13,31 -33,66 -61,105 -32,45 -62,47 -115,36 -106,-23 -198,-43 -277,-60 -28,-7 -30,-2 -5,13 83,51 172,100 264,149 62,32 -3,112 -34,162 -28,45 -77,21 -112,1 -195,-110 -431,-243 -709,-397 -15,-9 -22,-24 -19,-48 0,0 7,-14 21,-40 15,-29 46,-87 80,-97 18,-5 33,-6 44,-4 111,18 221,39 330,63z"/>
   <path class="fil1" d="M16450 6873c2,-1 5,-2 8,-2 6,0 12,3 15,8l3 6c17,28 0,69 -37,91 0,0 0,0 0,0l-49 30c-38,22 -81,18 -98,-10l-3 -5c-2,-3 -3,-6 -3,-9 0,-6 3,-12 8,-15l156 -94z"/>
   <path class="fil0" d="M16312 7962c-15,4 -40,13 -73,27 -49,20 -83,22 -104,-33 -23,-60 -41,-110 -56,-150 -8,-24 0,-40 25,-47l838 -230c5,-1 10,-2 14,-2 22,0 42,13 51,33l106 255c3,5 4,11 4,18 0,16 -9,31 -22,39l-763 462c-5,2 -10,4 -15,4 -11,0 -21,-7 -25,-17 -21,-50 -45,-104 -71,-160 -9,-18 -7,-38 5,-60 6,-10 21,-19 46,-27 28,-10 53,-22 74,-39 6,-4 7,-9 4,-15l-20 -49c-4,-8 -10,-11 -18,-9zm180 -35l0 0c5,11 9,18 14,23 9,9 24,11 36,5 94,-52 184,-102 269,-150 4,-3 6,-7 4,-11 -1,-3 -5,-4 -10,-2 -94,25 -193,52 -297,81 -13,3 -22,15 -22,29 0,6 2,15 6,25z"/>
   <path class="fil0" d="M3719 8195c-40,100 -117,187 -226,191 -38,2 -99,-14 -183,-48 -258,-102 -444,-174 -559,-218 0,0 -1,0 -1,0 -25,-10 -37,-39 -27,-63 0,-1 1,-1 1,-1l63 -152c7,-16 22,-26 39,-26 5,0 11,1 16,3 266,108 493,198 681,269 8,3 16,3 21,1 7,-3 12,-9 16,-19 4,-9 4,-17 1,-24 -2,-6 -8,-10 -16,-14 -186,-77 -412,-168 -680,-271 -16,-7 -27,-22 -27,-40 0,-5 1,-10 3,-15l58 -154c0,-1 0,-1 1,-1 10,-25 38,-37 63,-27 0,0 0,0 1,0 113,48 298,122 555,225 84,33 140,64 166,90 77,79 73,195 34,294z"/>
   <path class="fil1" d="M16815 7794c2,4 0,8 -4,11 -85,48 -175,98 -270,150 -11,6 -26,4 -35,-5 -5,-5 -9,-12 -14,-23 -4,-10 -6,-19 -6,-25 0,-14 9,-26 22,-29 104,-29 203,-56 297,-81 5,-2 9,-1 10,2z"/>
   <path class="fil0" d="M7636 8313c-100,3 -179,0 -280,29 -134,39 -224,116 -272,232 -9,22 -19,23 -31,2l-59 -103c-18,-30 -15,-67 6,-94 98,-124 222,-202 373,-232 77,-16 162,-29 211,49 11,17 31,51 61,99 1,2 2,4 2,7 0,6 -5,11 -11,11l0 0z"/>
   <path class="fil0" d="M1419 8170l1 -20c2,7 1,14 -1,20z"/>
   <path class="fil0" d="M1460 8525c-1,-4 -2,-9 -1,-13l1 13z"/>
   <path class="fil0" d="M7900 8963c-189,43 -341,157 -445,317 -2,2 -4,3 -6,3 -3,0 -5,-1 -6,-3l-218 -379c-7,-10 -8,-24 -2,-36 106,-229 317,-314 557,-324 27,-1 40,5 56,28 80,116 157,227 231,335 2,3 3,7 3,11 0,10 -7,19 -17,20 -49,7 -100,16 -153,28z"/>
   <path class="fil0" d="M8233 10688c-6,16 -13,17 -21,2 -401,-728 -608,-1105 -621,-1129 -14,-25 -14,-50 1,-74 102,-164 247,-274 435,-331 64,-19 116,-28 157,-25 25,2 47,18 67,47 43,62 272,394 687,996 1,2 2,4 2,6 0,5 -3,9 -8,10 -110,20 -221,53 -335,97 -179,70 -300,204 -364,401z"/>
   <path class="fil3" d="M11414 13299c-36,-170 -89,-317 -159,-441 -167,-298 -416,-505 -747,-622 -82,-29 -165,-49 -248,-61 0,-611 0,-1219 0,-1823 0,-66 -5,-110 -13,-132 -34,-93 -152,-166 -244,-120 -78,40 -117,108 -117,204 3,624 4,1248 3,1873 -354,51 -642,211 -861,479 -159,195 -263,427 -310,696 -14,-45 -25,-87 -33,-126 -17,-78 -26,-120 -28,-126 -137,-542 -248,-1077 -332,-1605 -9,-56 -11,-122 -6,-197 8,-126 14,-264 35,-387 16,-88 33,-166 54,-234 68,-225 302,-345 514,-409 217,-65 334,-101 352,-108 102,-40 204,-86 308,-140 95,-50 160,-90 241,-172 73,-73 135,-133 186,-179 14,-13 32,-20 51,-20 19,0 37,8 51,21 102,96 205,192 309,286 35,32 94,49 131,67 116,60 199,98 249,115 215,74 360,123 435,146 118,36 219,86 302,148 116,87 176,212 209,367 64,302 67,614 7,936 -104,564 -217,1085 -339,1564z"/>
   <path class="fil3" d="M8235 13004c-12,2 -24,1 -35,-2 -179,-53 -355,-51 -528,4 -12,-15 -22,-30 -29,-43 -426,-777 -853,-1553 -1281,-2329 -13,-22 -20,-49 -47,-57 -85,-27 -165,-13 -240,44 -45,34 -67,77 -65,130 2,29 17,70 46,123 427,775 855,1554 1284,2336 -118,130 -194,282 -227,457 -6,30 -9,69 -10,117 -1,44 -2,83 -4,118 -95,62 -176,135 -244,219 -72,89 -129,185 -171,289 -9,21 -30,95 -65,220 -82,305 -254,553 -515,744 -83,61 -177,100 -281,116 -140,22 -281,14 -424,-25 -6,-2 -8,-5 -3,-10 69,-88 161,-182 219,-262 118,-160 205,-335 262,-525 47,-157 70,-236 70,-237 72,-170 174,-308 305,-413 64,-51 143,-90 238,-117 42,-12 115,-20 221,-25 77,-3 151,-9 223,-17 14,-2 25,-5 35,-9 1,-1 3,-3 3,-5 0,-2 -2,-4 -4,-5 -559,-222 -1051,-428 -1476,-618 -58,-25 -116,-64 -174,-115 -298,-265 -546,-515 -746,-750 -111,-130 -195,-290 -253,-480 -143,-476 -285,-887 -426,-1234 -41,-104 -109,-191 -200,-272 -176,-158 -367,-278 -571,-360 -18,-7 -18,-11 2,-12 79,-6 163,-8 250,-7 395,3 751,111 1069,325 41,28 85,72 131,132 86,112 158,233 216,362 18,42 56,156 113,344 108,356 254,692 438,1011 87,150 165,271 234,361 112,146 231,286 356,418 54,57 118,112 191,164 245,175 449,326 612,455 106,84 190,136 300,195 1,0 2,0 2,1 9,3 18,-1 21,-10 0,0 1,-1 1,-1 3,-11 1,-21 -5,-29 -203,-304 -397,-580 -581,-827 -224,-301 -531,-703 -923,-1205 -41,-52 -105,-138 -192,-257 -91,-125 -117,-262 -77,-413 9,-33 22,-59 41,-79 364,-372 567,-582 610,-629 51,-57 80,-120 87,-190 1,-12 11,-21 22,-21 3,0 6,1 9,2 638,279 1043,457 1216,533 75,33 132,62 170,89 65,46 114,87 148,124 22,23 39,59 53,106 137,481 304,1061 499,1740 30,104 64,208 100,311z"/>
   <path class="fil3" d="M13042 13916c-3,-21 -3,-42 0,-64 4,-26 5,-47 3,-63 -8,-79 -14,-131 -19,-155 -30,-149 -96,-281 -200,-396 -33,-36 -68,-69 -107,-100 430,-777 857,-1551 1283,-2320 12,-21 14,-41 8,-61 -31,-101 -96,-157 -196,-168 -54,-6 -126,-2 -154,49 -233,413 -661,1194 -1287,2341 -158,-28 -316,-13 -475,47 -8,3 -14,1 -17,-7 90,-279 152,-485 189,-617 103,-375 214,-757 333,-1147 9,-30 27,-103 56,-219 25,-106 79,-195 161,-265 53,-46 113,-84 180,-114 373,-166 795,-350 1267,-554 4,-1 7,-2 10,-2 13,0 24,10 25,22 7,68 36,132 87,190 29,33 174,182 436,448 106,107 170,183 193,228 52,102 55,209 10,321 -19,46 -61,112 -127,198 -16,21 -63,84 -143,188 -124,162 -402,524 -834,1087 -125,162 -340,468 -647,918 -1,1 -4,5 -10,12 -9,10 -9,21 -1,34 4,7 12,11 20,11 4,0 8,-1 12,-3 187,-109 337,-227 520,-371 177,-139 390,-286 541,-410 55,-45 109,-108 160,-174 62,-82 128,-166 198,-253 147,-184 271,-376 372,-578 128,-254 226,-493 294,-715 62,-204 116,-357 160,-460 73,-165 152,-307 283,-424 233,-210 600,-337 912,-366 146,-14 302,-17 469,-11 19,1 19,5 2,12 -278,114 -559,296 -728,534 -48,68 -77,153 -110,238 -126,330 -237,657 -334,981 -50,168 -94,285 -130,354 -79,148 -173,278 -283,391 -183,189 -311,318 -383,387 -109,105 -206,190 -291,256 -69,53 -158,97 -247,135 -474,199 -922,386 -1345,560 -10,4 -10,8 1,11 128,34 325,10 474,50 160,44 291,136 393,276 106,146 181,308 224,486 22,87 44,162 68,223 22,56 61,124 115,202 77,110 170,226 280,348 1,1 2,2 2,3 5,10 2,21 -7,26 -1,1 -3,2 -4,2 -329,84 -610,10 -843,-221 -219,-216 -331,-485 -412,-792 -56,-216 -230,-410 -407,-539z"/>
   <path class="fil1" d="M10260 12175l-371 2c1,-625 0,-1249 -3,-1873 0,-96 39,-164 117,-204 92,-46 210,27 244,120 8,22 13,66 13,132 0,604 0,1212 0,1823z"/>
   <path class="fil1" d="M7672 13006c-118,53 -228,120 -332,204 -429,-782 -857,-1561 -1284,-2336 -29,-53 -44,-94 -46,-123 -2,-53 20,-96 65,-130 75,-57 155,-71 240,-44 27,8 34,35 47,57 428,776 855,1552 1281,2329 7,13 17,28 29,43z"/>
   <path class="fil1" d="M12719 13138c-108,-71 -223,-123 -346,-159 626,-1147 1054,-1928 1287,-2341 28,-51 100,-55 154,-49 100,11 165,67 196,168 6,20 4,40 -8,61 -426,769 -853,1543 -1283,2320z"/>
   <path class="fil4" d="M10260 12175c83,12 166,32 248,61 331,117 580,324 747,622 70,124 123,271 159,441l25 191c1,11 4,11 7,1 11,-28 23,-54 37,-80 87,-166 215,-289 384,-371 7,-3 12,-10 14,-21 3,8 9,10 17,7 159,-60 317,-75 475,-47 123,36 238,88 346,159 39,31 74,64 107,100 104,115 170,247 200,396 5,24 11,76 19,155 2,16 1,37 -3,63 -3,22 -3,43 0,64l-53 190c-67,157 -166,284 -297,382 -116,64 -238,113 -367,146 -170,20 -325,-5 -463,-75 -263,-133 -417,-344 -465,-634 -4,-24 -10,-24 -18,-2 -9,24 -30,79 -63,167 -25,64 -59,129 -103,195 -221,334 -527,538 -920,609 -16,4 -20,10 -34,16l-370 -11c-62,-8 -111,-17 -148,-27 -352,-95 -623,-292 -812,-594 -64,-104 -125,-213 -152,-329 -11,-49 -22,-49 -32,0 -73,349 -281,572 -626,668 -101,29 -216,31 -343,7 -128,-38 -249,-93 -364,-166 -44,-39 -86,-83 -125,-134 -59,-75 -108,-160 -147,-256l-41 -166c2,-35 3,-74 4,-118 1,-48 4,-87 10,-117 33,-175 109,-327 227,-457 104,-84 214,-151 332,-204 173,-55 349,-57 528,-4 11,3 23,4 35,2 11,18 19,28 25,30 197,87 341,231 433,434 2,4 4,7 7,9 1,0 2,1 2,1 4,1 7,-1 8,-5 0,-1 0,-1 0,-2 -5,-54 -3,-94 8,-119 47,-269 151,-501 310,-696 219,-268 507,-428 861,-479l371 -2zm-1512 1146l0 0c-4,-4 -5,-9 -5,-16 0,-1 0,-1 0,-1 0,0 0,0 0,0 0,0 -1,0 -1,1 2,40 4,68 5,84 2,25 0,53 -5,85 -15,97 -6,213 28,348 33,136 77,253 130,351 77,142 187,276 329,403 133,120 307,208 521,264 25,6 88,18 191,34 38,6 68,8 89,6 28,-2 58,-3 90,-2 34,2 78,-2 133,-11 415,-65 780,-304 977,-676 45,-85 85,-181 119,-288 29,-88 18,-137 -61,-188 -857,-551 -1371,-882 -1543,-994 -55,-36 -108,-52 -158,-50 -7,0 -12,3 -15,9 -135,187 -220,398 -255,632 -63,429 28,818 275,1167 26,37 63,84 113,142 1,0 2,1 2,2 0,4 -2,7 -5,7 -1,0 -2,0 -3,0 -234,-96 -408,-241 -523,-435 -134,-224 -187,-504 -174,-768 10,-218 79,-418 206,-600 54,-76 126,-155 218,-238 5,-4 7,-9 6,-15 -9,-62 -45,-97 -108,-105 -28,-3 -52,3 -72,17 -267,198 -431,501 -488,829 0,5 -4,9 -9,9 -3,0 -5,-1 -7,-3l0 0zm-1055 1155l0 0c-97,-34 -180,-89 -246,-166 -115,-133 -184,-329 -182,-510 4,-221 89,-411 255,-570 12,-12 12,-23 0,-35l-20 -19c-16,-15 -33,-16 -51,-4 -50,34 -82,59 -96,73 -116,123 -185,268 -208,436 -29,215 17,410 138,585 99,143 240,244 424,304 56,18 120,28 190,30 82,3 147,-2 196,-14 296,-73 496,-255 598,-547 10,-29 13,-52 7,-70 -8,-27 -23,-49 -44,-63 -139,-95 -406,-267 -800,-516 -1,-1 -27,-19 -77,-56 -41,-30 -85,-50 -132,-59 -6,-2 -11,0 -15,5 -71,81 -120,175 -145,279 -66,273 -36,573 130,798 21,30 49,66 84,110 8,10 6,13 -6,9zm4274 6l0 0c-208,-81 -334,-243 -395,-458 -26,-89 -36,-179 -31,-269 11,-209 99,-388 265,-537 3,-3 4,-6 1,-10l-20 -28c-12,-18 -36,-23 -55,-13 -40,24 -74,52 -104,86 -60,71 -110,154 -150,249 -48,112 -67,227 -58,345 6,90 28,180 63,268 35,88 83,164 144,230 127,135 277,217 452,244 157,25 308,7 453,-53 99,-40 184,-99 255,-176 74,-79 130,-169 169,-268 17,-44 44,-125 10,-166 -14,-18 -34,-35 -60,-51 -335,-213 -633,-404 -893,-572 -29,-19 -60,-30 -93,-33 -9,-1 -18,3 -23,11 -92,137 -148,284 -169,439 -35,271 76,540 244,756 0,0 1,1 1,2 0,2 -2,4 -4,4 -1,0 -1,0 -2,0l0 0z"/>
   <path class="fil5" d="M8748 13321c2,2 4,3 7,3 5,0 9,-4 9,-9 57,-328 221,-631 488,-829 20,-14 44,-20 72,-17 63,8 99,43 108,105 1,6 -1,11 -6,15 -92,83 -164,162 -218,238 -127,182 -196,382 -206,600 -13,264 40,544 174,768 115,194 289,339 523,435 1,0 2,0 3,0 3,0 5,-3 5,-7 0,-1 -1,-2 -2,-2 -50,-58 -87,-105 -113,-142 -247,-349 -338,-738 -275,-1167 35,-234 120,-445 255,-632 3,-6 8,-9 15,-9 50,-2 103,14 158,50 172,112 686,443 1543,994 79,51 90,100 61,188 -34,107 -74,203 -119,288 -197,372 -562,611 -977,676 -55,9 -99,13 -133,11 -32,-1 -62,0 -90,2 -21,2 -51,0 -89,-6 -103,-16 -166,-28 -191,-34 -214,-56 -388,-144 -521,-264 -142,-127 -252,-261 -329,-403 -53,-98 -97,-215 -130,-351 -34,-135 -43,-251 -28,-348 5,-32 7,-60 5,-85 -1,-16 -3,-44 -5,-84 0,-1 1,-1 1,-1 0,0 0,0 0,0 0,0 0,0 0,1 0,7 1,12 5,16z"/>
   <path class="fil5" d="M7693 14476c12,4 14,1 6,-9 -35,-44 -63,-80 -84,-110 -166,-225 -196,-525 -130,-798 25,-104 74,-198 145,-279 4,-5 9,-7 15,-5 47,9 91,29 132,59 50,37 76,55 77,56 394,249 661,421 800,516 21,14 36,36 44,63 6,18 3,41 -7,70 -102,292 -302,474 -598,547 -49,12 -114,17 -196,14 -70,-2 -134,-12 -190,-30 -184,-60 -325,-161 -424,-304 -121,-175 -167,-370 -138,-585 23,-168 92,-313 208,-436 14,-14 46,-39 96,-73 18,-12 35,-11 51,4l20 19c12,12 12,23 0,35 -166,159 -251,349 -255,570 -2,181 67,377 182,510 66,77 149,132 246,166z"/>
   <path class="fil5" d="M11967 14482c1,0 1,0 2,0 2,0 4,-2 4,-4 0,-1 -1,-2 -1,-2 -168,-216 -279,-485 -244,-756 21,-155 77,-302 169,-439 5,-8 14,-12 23,-11 33,3 64,14 93,33 260,168 558,359 893,572 26,16 46,33 60,51 34,41 7,122 -10,166 -39,99 -95,189 -169,268 -71,77 -156,136 -255,176 -145,60 -296,78 -453,53 -175,-27 -325,-109 -452,-244 -61,-66 -109,-142 -144,-230 -35,-88 -57,-178 -63,-268 -9,-118 10,-233 58,-345 40,-95 90,-178 150,-249 30,-34 64,-63 105,-86 18,-10 42,-5 54,12l20 29c3,4 2,7 -1,10 -166,149 -254,328 -265,537 -5,90 5,180 31,269 61,215 187,377 395,458z"/>
   <path class="fil3" d="M12325 14634l369 691c7,13 20,21 35,21 2,0 4,0 6,0 119,-19 217,-72 294,-159 17,-20 15,-43 5,-64 -81,-159 -181,-346 -301,-563 -13,-24 -27,-48 -41,-72 131,-98 230,-225 297,-382 42,79 84,166 127,237 76,126 161,266 256,420 63,102 72,236 25,350 -79,190 -237,328 -416,416 -20,10 -40,13 -60,10 -60,-12 -132,-29 -218,-50 -65,-16 -115,-22 -150,-19 -72,6 -129,12 -170,17 -121,16 -229,-21 -325,-111 -88,-82 -148,-146 -180,-190 -27,-38 -47,-86 -60,-145 -29,-139 -45,-214 -49,-227 -6,-25 -11,-59 -13,-103 -4,-63 -56,-109 -104,-150 -47,-41 -88,-55 -138,-19 -12,8 -23,25 -35,50 -3,7 -20,41 -49,102 -44,92 -97,167 -159,225 -110,104 -234,182 -371,234 -103,39 -194,76 -270,110 -79,34 -245,123 -499,265 -53,30 -107,21 -163,-12 -257,-150 -522,-289 -810,-382 -29,-9 -79,-41 -108,-64 -76,-60 -148,-115 -215,-164 -89,-66 -141,-189 -191,-308 -11,-27 -26,-47 -45,-61 -24,-17 -49,-19 -78,-6 -68,32 -116,81 -144,147 -13,32 -26,98 -40,198 -13,96 -26,161 -38,196 -47,127 -163,246 -267,332 -54,44 -113,72 -177,83 -27,5 -80,3 -158,-6 -133,-15 -262,-5 -386,31 -61,18 -104,25 -131,21 -46,-6 -94,-26 -142,-60 -71,-50 -124,-92 -161,-128 -125,-121 -214,-296 -174,-472 9,-40 36,-95 80,-168 103,-167 262,-408 357,-637 39,96 88,181 147,256 39,51 81,95 125,134l-354 684c-5,10 -4,22 3,31 64,79 145,133 244,161 41,11 72,12 93,1 6,-3 10,-7 13,-13l365 -698c127,24 242,22 343,-7 345,-96 553,-319 626,-668 10,-49 21,-49 32,0 27,116 88,225 152,329 189,302 460,499 812,594 37,10 86,19 148,27 -2,57 -10,128 10,176 47,110 175,175 278,86 94,-80 80,-147 82,-251 14,-6 18,-12 34,-16 393,-71 699,-275 920,-609 44,-66 78,-131 103,-195 33,-88 54,-143 63,-167 8,-22 14,-22 18,2 48,290 202,501 465,634 138,70 293,95 463,75z"/>
   <path class="fil1" d="M7776 14624l-365 698c-3,6 -7,10 -13,13 -21,11 -52,10 -93,-1 -99,-28 -180,-82 -244,-162 -7,-8 -8,-20 -3,-30l354 -684c115,73 236,128 364,166z"/>
   <path class="fil1" d="M12692 14488c14,24 28,48 41,72 120,217 220,404 301,563 10,21 12,44 -5,64 -77,87 -175,140 -294,159 -2,0 -4,0 -6,0 -15,0 -28,-8 -35,-21l-369 -691c129,-33 251,-82 367,-146z"/>
   <path class="fil1" d="M10259 14910c-2,104 12,171 -82,251 -103,89 -231,24 -278,-86 -20,-48 -12,-119 -10,-176l370 11z"/>
   <path class="fil0" d="M11362 16880c0,149 -121,270 -270,270 0,0 0,0 0,0l-74 0c-149,-1 -270,-122 -270,-271 0,0 0,0 0,0l1 -505c0,-149 121,-269 270,-269 0,0 0,0 1,0l73 0c149,0 270,121 270,270 0,0 0,0 0,0l-1 505zm-266 -565l0 0c0,-21 -18,-38 -39,-38l-4 0c-21,0 -39,17 -39,38l0 625c0,21 18,39 39,39l4 0c21,0 39,-18 39,-39l0 -625z"/>
   <path class="fil0" d="M7996 16949l-28 0c-25,0 -37,13 -38,38 0,11 0,39 1,83 0,46 -23,68 -69,69 -48,1 -104,-1 -169,-4 -32,-2 -46,-18 -42,-50l125 -925c4,-25 25,-43 50,-43 0,0 0,0 1,0 95,2 188,1 280,-5 23,-1 44,14 64,46 8,13 12,40 13,82 0,24 2,51 7,81 55,356 93,608 115,758 3,16 3,26 3,32 -2,20 -13,28 -32,27 -63,-6 -121,-6 -175,0 -38,4 -62,-15 -63,-55 0,-2 -1,-34 -5,-97 -1,-25 -14,-37 -38,-37zm-20 -168l0 0c15,0 26,0 34,-2 12,-2 20,-13 19,-25 -11,-109 -24,-228 -39,-357 -1,-8 -5,-12 -11,-12 -6,0 -9,4 -10,12 -17,129 -32,248 -45,356 -1,12 6,23 18,26 8,1 19,2 34,2z"/>
   <path class="fil0" d="M9021 16499c6,41 12,41 18,0l45 -335c3,-25 25,-44 51,-45l271 0c18,0 32,14 32,32l0 955c0,14 -11,26 -25,27 -53,7 -105,7 -156,2 -33,-4 -51,-25 -52,-63 -8,-180 -10,-356 -6,-529 0,-1 -1,-2 -2,-2l-5 0c-4,0 -6,2 -6,5 -24,177 -45,354 -63,531 -5,45 -33,58 -76,60 -50,2 -101,7 -109,-53 -35,-271 -58,-443 -68,-515 -1,-3 -3,-6 -6,-8l-9 -4c-2,-1 -3,0 -3,3l0 539c0,19 -15,35 -34,36 -57,4 -107,3 -153,-4 -47,-7 -47,-65 -48,-110 -2,-227 -3,-515 -1,-865 1,-21 17,-37 38,-37 0,0 0,0 0,0l270 0c20,0 38,14 41,34l56 346z"/>
   <path class="fil0" d="M10292 16588c65,26 102,79 111,159 10,95 6,186 -12,271 -18,86 -88,108 -171,113 -113,7 -248,8 -406,4 -17,-1 -26,-9 -26,-26l0 -963c0,-19 10,-28 29,-28 90,-1 178,-1 264,0 24,0 60,3 109,10 96,14 168,62 185,158 10,62 13,123 7,182 -5,52 -35,89 -90,111 -8,3 -8,6 0,9zm-245 -277l0 0 0 191c0,12 10,21 21,21l20 0c28,0 51,-25 51,-56l0 -120c0,-31 -23,-57 -51,-57l-20 0c-11,0 -21,10 -21,21l0 0zm1 382l0 0 -1 251c0,1 0,1 0,1 0,10 9,18 19,19l18 0c0,0 0,0 0,0 30,0 54,-24 54,-53l1 -184c0,0 0,0 0,0 0,-29 -24,-52 -54,-52l-18 0c0,0 0,0 0,0 -10,0 -19,8 -19,18l0 0z"/>
   <path class="fil0" d="M12081 16485c0,-149 -1,-251 -2,-305 0,-32 12,-52 36,-61 22,-8 74,-5 154,9 7,1 12,4 16,9 15,17 22,38 22,63 0,24 0,319 0,884 0,34 -15,51 -43,52 -20,0 -53,1 -98,1 -62,1 -103,-29 -122,-91 -34,-109 -66,-214 -95,-315 -9,-29 -13,-28 -13,2l0 371c0,16 -12,29 -27,30 -58,6 -109,4 -152,-3 -47,-9 -47,-82 -47,-120 0,-283 0,-566 1,-850 0,-28 15,-43 44,-43 78,0 170,-18 199,67 49,139 85,240 110,303 11,29 17,28 17,-3z"/>
   <path class="fil1" d="M11053 16277l4 0c21,0 39,17 39,38l0 625c0,21 -18,39 -39,39l-4 0c-21,0 -39,-18 -39,-39l0 -625c0,-21 18,-38 39,-38l0 0z"/>
   <path class="fil1" d="M10047 16311c0,-11 10,-21 21,-21l20 0c28,0 51,26 51,57l0 120c0,31 -23,56 -51,56l-20 0c-11,0 -21,-9 -21,-21l0 -191z"/>
   <path class="fil1" d="M7979 16385c6,0 10,4 11,12 15,129 28,248 39,357 1,12 -7,23 -19,25 -8,2 -19,2 -34,2 -15,0 -26,-1 -34,-2 -12,-3 -19,-14 -18,-26 13,-108 28,-227 45,-356 1,-8 4,-12 10,-12z"/>
   <path class="fil1" d="M10048 16693c0,-10 9,-18 19,-18 0,0 0,0 0,0l18 0c30,0 54,23 54,52 0,0 0,0 0,0l-1 184c0,29 -24,53 -54,53 0,0 0,0 0,0l-18 0c-10,-1 -19,-9 -19,-19 0,0 0,0 0,-1l1 -251z"/>
  </g>
 </g>
</svg>
